<mxfile host="drawio-plugin" modified="2024-01-12T22:11:30.762Z" agent="5.0 (Windows NT 6.2; Win64; x64) AppleWebKit/537.36 (KHTML, like Gecko) Chrome/104.0.5112.102 Safari/537.36" version="20.5.3" etag="ePRLUY-WxAAaWRLNDvqk" type="embed"><diagram id="mYnzwhp1rg1T-En5A5sv" name="Page-1"><mxGraphModel dx="652" dy="563" grid="1" gridSize="10" guides="1" tooltips="1" connect="1" arrows="1" fold="1" page="1" pageScale="1" pageWidth="850" pageHeight="1100" math="0" shadow="0"><root><mxCell id="0"/><mxCell id="1" parent="0"/><mxCell id="2" value="Vertex" style="swimlane;fontStyle=1;align=center;verticalAlign=top;childLayout=stackLayout;horizontal=1;startSize=26;horizontalStack=0;resizeParent=1;resizeParentMax=0;resizeLast=0;collapsible=1;marginBottom=0;fillColor=#1ba1e2;fontColor=#ffffff;strokeColor=#006EAF;" vertex="1" parent="1"><mxGeometry x="60" y="30" width="180" height="136" as="geometry"/></mxCell><mxCell id="3" value="+ field: name                    String " style="text;strokeColor=#432D57;fillColor=#76608a;align=left;verticalAlign=top;spacingLeft=4;spacingRight=4;overflow=hidden;rotatable=0;points=[[0,0.5],[1,0.5]];portConstraint=eastwest;fontColor=#ffffff;" vertex="1" parent="2"><mxGeometry y="26" width="180" height="22" as="geometry"/></mxCell><mxCell id="6" value="+ field: isVisited            boolean" style="text;strokeColor=#432D57;fillColor=#76608a;align=left;verticalAlign=top;spacingLeft=4;spacingRight=4;overflow=hidden;rotatable=0;points=[[0,0.5],[1,0.5]];portConstraint=eastwest;fontColor=#ffffff;" vertex="1" parent="2"><mxGeometry y="48" width="180" height="22" as="geometry"/></mxCell><mxCell id="7" value="+ field: neighbours   List&lt;Edge&gt;" style="text;strokeColor=#432D57;fillColor=#76608a;align=left;verticalAlign=top;spacingLeft=4;spacingRight=4;overflow=hidden;rotatable=0;points=[[0,0.5],[1,0.5]];portConstraint=eastwest;fontColor=#ffffff;" vertex="1" parent="2"><mxGeometry y="70" width="180" height="22" as="geometry"/></mxCell><mxCell id="8" value="+ field: distance                     int" style="text;strokeColor=#432D57;fillColor=#76608a;align=left;verticalAlign=top;spacingLeft=4;spacingRight=4;overflow=hidden;rotatable=0;points=[[0,0.5],[1,0.5]];portConstraint=eastwest;fontColor=#ffffff;" vertex="1" parent="2"><mxGeometry y="92" width="180" height="22" as="geometry"/></mxCell><mxCell id="9" value="+ field: predessor             Vertex" style="text;strokeColor=#432D57;fillColor=#76608a;align=left;verticalAlign=top;spacingLeft=4;spacingRight=4;overflow=hidden;rotatable=0;points=[[0,0.5],[1,0.5]];portConstraint=eastwest;fontColor=#ffffff;" vertex="1" parent="2"><mxGeometry y="114" width="180" height="22" as="geometry"/></mxCell><mxCell id="10" value="Adge" style="swimlane;fontStyle=1;align=center;verticalAlign=top;childLayout=stackLayout;horizontal=1;startSize=26;horizontalStack=0;resizeParent=1;resizeParentMax=0;resizeLast=0;collapsible=1;marginBottom=0;fillColor=#1ba1e2;fontColor=#ffffff;strokeColor=#006EAF;" vertex="1" parent="1"><mxGeometry x="425" y="30" width="180" height="48" as="geometry"/></mxCell><mxCell id="11" value="+ field: start                     Vertex" style="text;strokeColor=#432D57;fillColor=#76608a;align=left;verticalAlign=top;spacingLeft=4;spacingRight=4;overflow=hidden;rotatable=0;points=[[0,0.5],[1,0.5]];portConstraint=eastwest;fontColor=#ffffff;" vertex="1" parent="10"><mxGeometry y="26" width="180" height="22" as="geometry"/></mxCell><mxCell id="12" value="+ method: compute(source:Vertex)   void" style="text;strokeColor=#006EAF;fillColor=#6D8764;align=left;verticalAlign=top;spacingLeft=4;spacingRight=4;overflow=hidden;rotatable=0;points=[[0,0.5],[1,0.5]];portConstraint=eastwest;fontColor=#FFFFFF;" vertex="1" parent="1"><mxGeometry x="60" y="317" width="230" height="26" as="geometry"/></mxCell><mxCell id="13" value="+ method: dijkstra()" style="text;strokeColor=#006EAF;fillColor=#6D8764;align=left;verticalAlign=top;spacingLeft=4;spacingRight=4;overflow=hidden;rotatable=0;points=[[0,0.5],[1,0.5]];portConstraint=eastwest;fontColor=#FFFFFF;" vertex="1" parent="1"><mxGeometry x="60" y="291" width="230" height="26" as="geometry"/></mxCell><mxCell id="14" value="+ field: end                      Vertex" style="text;strokeColor=#432D57;fillColor=#76608a;align=left;verticalAlign=top;spacingLeft=4;spacingRight=4;overflow=hidden;rotatable=0;points=[[0,0.5],[1,0.5]];portConstraint=eastwest;fontColor=#ffffff;" vertex="1" parent="1"><mxGeometry x="425" y="78" width="180" height="22" as="geometry"/></mxCell><mxCell id="15" value="+ field: weight                        int" style="text;strokeColor=#432D57;fillColor=#76608a;align=left;verticalAlign=top;spacingLeft=4;spacingRight=4;overflow=hidden;rotatable=0;points=[[0,0.5],[1,0.5]];portConstraint=eastwest;fontColor=#ffffff;" vertex="1" parent="1"><mxGeometry x="425" y="100" width="180" height="22" as="geometry"/></mxCell><mxCell id="16" value="Dijkstra" style="swimlane;fontStyle=1;align=center;verticalAlign=top;childLayout=stackLayout;horizontal=1;startSize=26;horizontalStack=0;resizeParent=1;resizeParentMax=0;resizeLast=0;collapsible=1;marginBottom=0;fillColor=#1ba1e2;fontColor=#ffffff;strokeColor=#006EAF;" vertex="1" parent="1"><mxGeometry x="60" y="243" width="230" height="48" as="geometry"/></mxCell><mxCell id="17" value="+ field: queue PriorityQueue&lt;Vertex&gt;" style="text;strokeColor=#432D57;fillColor=#76608a;align=left;verticalAlign=top;spacingLeft=4;spacingRight=4;overflow=hidden;rotatable=0;points=[[0,0.5],[1,0.5]];portConstraint=eastwest;fontColor=#ffffff;" vertex="1" parent="16"><mxGeometry y="26" width="230" height="22" as="geometry"/></mxCell><mxCell id="24" value="App" style="swimlane;fontStyle=1;align=center;verticalAlign=top;childLayout=stackLayout;horizontal=1;startSize=26;horizontalStack=0;resizeParent=1;resizeParentMax=0;resizeLast=0;collapsible=1;marginBottom=0;fillColor=#1ba1e2;fontColor=#ffffff;strokeColor=#006EAF;" vertex="1" parent="1"><mxGeometry x="400" y="239" width="300" height="78" as="geometry"/></mxCell><mxCell id="25" value="+ method: generateVertices()            List&lt;Vertex&gt;" style="text;strokeColor=#006EAF;fillColor=#6D8764;align=left;verticalAlign=top;spacingLeft=4;spacingRight=4;overflow=hidden;rotatable=0;points=[[0,0.5],[1,0.5]];portConstraint=eastwest;fontColor=#FFFFFF;" vertex="1" parent="24"><mxGeometry y="26" width="300" height="26" as="geometry"/></mxCell><mxCell id="27" value="+ method: generateRoads(vertice:List&lt;Vertex&gt;)   void            List&lt;Vertex&gt;" style="text;strokeColor=#006EAF;fillColor=#6D8764;align=left;verticalAlign=top;spacingLeft=4;spacingRight=4;overflow=hidden;rotatable=0;points=[[0,0.5],[1,0.5]];portConstraint=eastwest;fontColor=#FFFFFF;" vertex="1" parent="24"><mxGeometry y="52" width="300" height="26" as="geometry"/></mxCell><mxCell id="28" value="+ method: findVertexByName(vertices:List&lt;Vertex&gt;," style="text;strokeColor=#6D8764;fillColor=#6D8764;align=left;verticalAlign=top;spacingLeft=4;spacingRight=4;overflow=hidden;rotatable=0;points=[[0,0.5],[1,0.5]];portConstraint=eastwest;fontColor=#FFFFFF;" vertex="1" parent="1"><mxGeometry x="400" y="317" width="300" height="23" as="geometry"/></mxCell><mxCell id="30" value="&amp;nbsp; &amp;nbsp; &amp;nbsp; &amp;nbsp; &amp;nbsp; &amp;nbsp; &amp;nbsp; &amp;nbsp; &amp;nbsp; &amp;nbsp; &amp;nbsp; &amp;nbsp; &amp;nbsp; &amp;nbsp; &amp;nbsp; &amp;nbsp; &amp;nbsp; &amp;nbsp; &amp;nbsp; &amp;nbsp; &amp;nbsp; &amp;nbsp; &amp;nbsp; &amp;nbsp; &amp;nbsp; cityName: String" style="whiteSpace=wrap;html=1;align=left;verticalAlign=top;fillColor=#6D8764;strokeColor=#6D8764;fontColor=#FFFFFF;gradientColor=none;spacingLeft=4;spacingRight=4;" vertex="1" parent="1"><mxGeometry x="400" y="340" width="300" height="30" as="geometry"/></mxCell><mxCell id="34" value="Main" style="text;html=1;align=center;verticalAlign=middle;resizable=0;points=[];autosize=1;strokeColor=none;fillColor=none;" vertex="1" parent="1"><mxGeometry x="235" y="405" width="50" height="30" as="geometry"/></mxCell></root></mxGraphModel></diagram></mxfile>